<?xml version="1.0" encoding="UTF-8"?>
<svg id="Layer_2" data-name="Layer 2" xmlns="http://www.w3.org/2000/svg" viewBox="0 0 2880 71.63">
  <defs>
    <style>
      .cls-1 {
        fill: #202020;
      }
    </style>
  </defs>
  <g id="Layer_2-2" data-name="Layer 2">
    <g>
      <path class="cls-1" d="M604.43,63.9h-.44c-.7.32-1.53.47-2.16.8l2.6-.8Z"/>
      <path class="cls-1" d="M0,71.63c51.71-3.18,102.27-12.71,179.35-16.3,111.55,3.81,141.14,18.48,256.75,12.52,55.15,1.19,113.99-2.19,167.89-3.96,25.58-11.43,70.78-.16,101.06-9.75l11.74,6.48c10.43-3.27,22.68-5.5,33.16-1.99l-.66,1.88c15.59-4.91,33.16-1.98,40.91-4.44l-.65,1.9,18.93-.84-3.25,2.69c27.18-5.2,55.18-5.55,79.86-3.17l-2.05-7.85c52.77,8.78,72.07-7.5,119.7,2.91l-.65,1.9c60.2-20.71,95.17,14.1,157.22-5.55-7.74,2.45,3.32,4.04,2.69,5.95,28.58-2.24,59.1-3.41,59.55-18.83,20.83.21,16.96,4.83,19.67,10.78-.12-6.76,17.97-9.56,34.23-9.98l-7.48,2.61,46.6-2.3-9.15-12.75c24.7,3.67,6.28,15.55,29.94,12.46l-.3-10.56c34.17,2.08,54.22,18.09,87.3,25.88,137.49,4.52,285.22-22.43,413.15-3.83l5.64,7.95c2.46,11.6,35.29-17.17,40.17-6.44l14.88-5.29c4.18,2.07,13,4.29,5.59,6.9,13.76.45,14.09-1.45,24-4.96l14.77,7.21c54.29,5.6,100.45-8.32,157.57-5.5,68.63,14.71,197.8,1.19,272.22-6.68,104.61-17.32,226.29,28.84,333.4,9.02,3.48,1.64,12.51-2.05,12.44-3.38l98.03,1.64s28.28.26,65.8-.73V0H0v71.63Z"/>
    </g>
  </g>
</svg>